<svg xmlns="http://www.w3.org/2000/svg" width="29" height="30" fill="none" viewBox="0 0 29 30"><path fill="#EC455A" d="M26.9286 0.5H2.06496C0.92567 0.5 0 1.43862 0 2.59085V27.4092C0 28.5614 0.92567 29.5 2.06496 29.5H26.9286C28.0679 29.5 29 28.5614 29 27.4092V2.59085C29 1.43862 28.0679 0.5 26.9286 0.5ZM8.76473 25.3571H4.46652V11.5174H8.7712V25.3571H8.76473ZM6.61562 9.62723C5.23683 9.62723 4.12344 8.50737 4.12344 7.13504C4.12344 5.76272 5.23683 4.64286 6.61562 4.64286C7.98795 4.64286 9.10781 5.76272 9.10781 7.13504C9.10781 8.51384 7.99442 9.62723 6.61562 9.62723ZM24.8766 25.3571H20.5783V18.625C20.5783 17.0196 20.546 14.9547 18.3451 14.9547C16.1054 14.9547 15.7623 16.7025 15.7623 18.5085V25.3571H11.4641V11.5174H15.5875V13.4076H15.6458C16.2219 12.3201 17.6266 11.1743 19.7174 11.1743C24.0674 11.1743 24.8766 14.042 24.8766 17.7705V25.3571Z"/></svg>