<svg xmlns="http://www.w3.org/2000/svg" width="29" height="30" fill="none" viewBox="0 0 29 30"><path fill="#EC455A" d="M9.6998 23.8508C9.6998 23.9707 9.56532 24.0666 9.39577 24.0666C9.20282 24.0846 9.06835 23.9887 9.06835 23.8508C9.06835 23.7308 9.20282 23.6349 9.37238 23.6349C9.54778 23.6169 9.6998 23.7128 9.6998 23.8508ZM7.88145 23.5809C7.84052 23.7008 7.95746 23.8388 8.13286 23.8747C8.28488 23.9347 8.46028 23.8747 8.49536 23.7548C8.53044 23.6349 8.41935 23.497 8.24395 23.443C8.09194 23.401 7.92238 23.461 7.88145 23.5809ZM10.4657 23.479C10.2962 23.5209 10.1792 23.6349 10.1968 23.7728C10.2143 23.8927 10.3663 23.9707 10.5417 23.9287C10.7113 23.8867 10.8282 23.7728 10.8107 23.6529C10.7931 23.5389 10.6353 23.461 10.4657 23.479ZM14.3129 0.5C6.20343 0.5 0 6.81442 0 15.1317C0 21.7819 4.08105 27.4727 9.91028 29.4756C10.6587 29.6135 10.9218 29.1398 10.9218 28.75C10.9218 28.3782 10.9042 26.3274 10.9042 25.0681C10.9042 25.0681 6.81149 25.9676 5.95202 23.2811C5.95202 23.2811 5.28548 21.5361 4.32661 21.0863C4.32661 21.0863 2.9877 20.1449 4.42016 20.1628C4.42016 20.1628 5.87601 20.2828 6.67702 21.71C7.95746 24.0247 10.1032 23.359 10.9393 22.9633C11.0738 22.0038 11.4538 21.3382 11.8748 20.9424C8.60645 20.5706 5.30887 20.0849 5.30887 14.3162C5.30887 12.6671 5.75323 11.8396 6.68871 10.7842C6.53669 10.3944 6.03972 8.7873 6.84073 6.71248C8.0627 6.3227 10.875 8.33156 10.875 8.33156C12.0444 7.99575 13.3014 7.82185 14.5468 7.82185C15.7921 7.82185 17.0492 7.99575 18.2185 8.33156C18.2185 8.33156 21.0308 6.3167 22.2528 6.71248C23.0538 8.7933 22.5569 10.3944 22.4048 10.7842C23.3403 11.8456 23.9133 12.6731 23.9133 14.3162C23.9133 20.1029 20.4696 20.5646 17.2012 20.9424C17.7391 21.4161 18.1952 22.3156 18.1952 23.7248C18.1952 25.7457 18.1776 28.2463 18.1776 28.738C18.1776 29.1278 18.4466 29.6015 19.1891 29.4636C25.0359 27.4727 29 21.7819 29 15.1317C29 6.81442 22.4224 0.5 14.3129 0.5ZM5.68306 21.1823C5.60706 21.2422 5.6246 21.3802 5.72399 21.4941C5.81754 21.59 5.95202 21.632 6.02802 21.5541C6.10403 21.4941 6.08649 21.3562 5.9871 21.2422C5.89355 21.1463 5.75907 21.1043 5.68306 21.1823ZM5.05161 20.6965C5.01069 20.7745 5.06915 20.8704 5.18609 20.9304C5.27964 20.9904 5.39657 20.9724 5.4375 20.8884C5.47843 20.8105 5.41996 20.7145 5.30302 20.6546C5.18609 20.6186 5.09254 20.6366 5.05161 20.6965ZM6.94597 22.8313C6.85242 22.9093 6.8875 23.0892 7.02198 23.2031C7.15645 23.341 7.32601 23.359 7.40202 23.2631C7.47802 23.1851 7.44294 23.0052 7.32601 22.8913C7.19738 22.7534 7.02198 22.7354 6.94597 22.8313ZM6.27944 21.9498C6.18589 22.0098 6.18589 22.1657 6.27944 22.3036C6.37298 22.4416 6.53085 22.5015 6.60685 22.4416C6.7004 22.3636 6.7004 22.2077 6.60685 22.0698C6.525 21.9318 6.37298 21.8719 6.27944 21.9498Z"/></svg>